<svg aria-hidden="true" style="position: absolute; width: 0; height: 0; overflow: hidden;" version="1.1" xmlns="http://www.w3.org/2000/svg" xmlns:xlink="http://www.w3.org/1999/xlink">
<defs>
<symbol id="icon-company-logo" viewBox="0 0 254 32">
<path d="M9.035 17.167l9.713 14.276h5.918v-30.991h-6.37v18.206l-0.136 0.136c-0.271-0.392-0.648-1.009-1.129-1.852l-1.355-2.123-9.758-14.366h-5.918v30.991h6.37v-18.161l0.181-0.136 2.991 5.283c0.373 0.613 0.747 1.225-1.862-3.408l0.116 0.207c0.429 0.713 0.877 1.413 1.24 1.939zM57.781 18.161c0 2.831-0.617 5.286-1.852 7.364-1.195 2.028-2.892 3.645-4.924 4.711l-0.068 0.032c-2.093 1.084-4.42 1.626-6.98 1.626s-4.887-0.542-6.98-1.626c-2.1-1.098-3.797-2.716-4.961-4.686l-0.031-0.057c-1.235-2.078-1.852-4.533-1.852-7.364v-4.427c0-2.831 0.617-5.286 1.852-7.364 1.195-2.028 2.892-3.645 4.924-4.711l0.068-0.032c2.093-1.084 4.42-1.626 6.98-1.626s4.887 0.542 6.98 1.626c2.1 1.098 3.797 2.716 4.961 4.686l0.031 0.057c1.235 2.078 1.852 4.533 1.852 7.364v4.427zM50.462 12.74c0-2.289-0.602-4.058-1.807-5.308s-2.771-1.875-4.698-1.875-3.494 0.625-4.698 1.875c-1.205 1.25-1.807 3.019-1.807 5.308v6.415c0 2.289 0.602 4.058 1.807 5.308s2.771 1.875 4.698 1.875 3.494-0.625 4.698-1.875c1.205-1.25 1.807-3.019 1.807-5.308v-6.415zM63.202 0.452v5.557h3.659v19.878h-3.659v5.557h14.276v-5.557h-3.614v-19.878h3.614v-5.557h-14.276zM90.263 19.155v-6.415c0-2.289 0.61-4.058 1.83-5.308s2.778-1.875 4.676-1.875c1.958 0 3.456 0.61 4.495 1.83s1.559 3.004 1.559 5.353h6.641c0-2.771-0.542-5.112-1.626-7.025s-2.568-3.343-4.45-4.292c-1.882-0.949-4.028-1.423-6.438-1.423h-0.632c-2.5 0-4.766 0.542-6.799 1.626s-3.637 2.665-4.811 4.744c-1.175 2.078-1.762 4.533-1.762 7.364v4.427c0 2.921 0.587 5.414 1.762 7.477s2.786 3.622 4.834 4.676c2.048 1.054 4.367 1.581 6.957 1.581h0.632c2.349 0 4.457-0.489 6.325-1.468s3.336-2.424 4.405-4.337c1.069-1.912 1.604-4.194 1.604-6.844h-6.37c0 2.409-0.512 4.194-1.536 5.353s-2.605 1.739-4.744 1.739c-1.897 0-3.464-0.625-4.698-1.875s-1.852-3.019-1.852-5.308zM114.884 31.443h21.956l-0.768-5.557h-14.321v-7.544h13.237v-5.557h-13.237v-6.776h14.185l0.768-5.557h-21.82v30.991zM141.899 31.443h20.51l-0.768-5.783h-12.74v-25.208h-7.002v30.991zM184.049 25.344h-12.333l-2.168 6.099h-6.731l11.249-30.991h8.312l11.249 30.991h-7.319l-2.259-6.099zM173.613 20.058h8.584c-4.523-14.456-5.935-18.489-7.365-22.514l3.209 10.362h-0.226l-4.201 12.152zM206.005 17.167l9.713 14.276h5.918v-30.991h-6.37v18.206l-0.136 0.136c-0.271-0.392-0.648-1.009-1.129-1.852l-1.355-2.123-9.758-14.366h-5.918v30.991h6.37v-18.161l0.181-0.136 2.991 5.283c0.373 0.613 0.747 1.225-1.862-3.408l0.116 0.207c0.429 0.713 0.877 1.413 1.24 1.939zM239.932 0.452c2.56 0 4.887 0.542 6.98 1.626 2.1 1.098 3.797 2.716 4.961 4.686l0.031 0.057c1.235 2.078 1.852 4.533 1.852 7.364v3.524c0 2.831-0.617 5.286-1.852 7.364-1.195 2.028-2.892 3.645-4.924 4.711l-0.068 0.032c-2.093 1.084-4.42 1.626-6.98 1.626h-11.746v-30.991h11.746zM235.189 25.886h4.744c1.928 0 3.494-0.625 4.698-1.875s1.807-3.019 1.807-5.308v-5.512c0-2.289-0.602-4.058-1.807-5.308s-2.771-1.875-4.698-1.875h-4.744v19.878z"></path>
</symbol>
</defs>
</svg>
